<svg data-v-423bf9ae="" xmlns="http://www.w3.org/2000/svg" viewBox="0 0 597.2989920644181 193" class="fontAboveSlogan"><!----><!----><!----><g data-v-423bf9ae="" id="ffc8d8d7-07d9-45af-b88e-8dfe42dd584e" fill="#25BDD6" transform="matrix(9.646301836681594,0,0,9.646301836681594,-4.491417451970619,-45.06993467791189)"><path d="M3.91 11.52L3.32 11.33Q2.70 11.12 2.20 10.90Q1.69 10.68 1.33 10.37Q0.97 10.07 0.76 9.64Q0.56 9.21 0.56 8.60L0.56 8.60Q0.56 7.41 1.48 6.69Q2.39 5.98 4.05 5.98L4.05 5.98Q4.65 5.98 5.17 6.06Q5.68 6.15 6.05 6.32Q6.43 6.50 6.64 6.77Q6.85 7.04 6.85 7.41L6.85 7.41Q6.85 7.77 6.68 8.03Q6.51 8.29 6.27 8.47L6.27 8.47Q5.96 8.27 5.45 8.13Q4.93 7.98 4.31 7.98L4.31 7.98Q3.68 7.98 3.39 8.16Q3.09 8.33 3.09 8.60L3.09 8.60Q3.09 8.81 3.28 8.94Q3.46 9.07 3.82 9.18L3.82 9.18L4.56 9.42Q5.88 9.84 6.59 10.49Q7.29 11.14 7.29 12.26L7.29 12.26Q7.29 13.45 6.36 14.19Q5.42 14.92 3.60 14.92L3.60 14.92Q2.95 14.92 2.40 14.82Q1.85 14.71 1.44 14.51Q1.02 14.31 0.79 14.01Q0.56 13.71 0.56 13.31L0.56 13.31Q0.56 12.91 0.80 12.62Q1.04 12.33 1.32 12.18L1.32 12.18Q1.71 12.49 2.27 12.71Q2.84 12.94 3.51 12.94L3.51 12.94Q4.20 12.94 4.48 12.73Q4.76 12.52 4.76 12.24L4.76 12.24Q4.76 11.96 4.54 11.81Q4.31 11.66 3.91 11.52L3.91 11.52ZM11.56 7.69L11.56 7.69Q12.40 7.69 13.13 7.90Q13.85 8.12 14.36 8.57Q14.88 9.02 15.18 9.70Q15.47 10.37 15.47 11.31L15.47 11.31Q15.47 12.21 15.22 12.88Q14.97 13.55 14.50 14.01Q14.04 14.46 13.39 14.69Q12.74 14.91 11.94 14.91L11.94 14.91Q11.34 14.91 10.82 14.73L10.82 14.73L10.82 17.05Q10.68 17.09 10.37 17.14Q10.07 17.19 9.74 17.19L9.74 17.19Q9.44 17.19 9.19 17.15Q8.95 17.11 8.78 16.98Q8.61 16.86 8.53 16.64Q8.44 16.42 8.44 16.07L8.44 16.07L8.44 9.35Q8.44 8.97 8.60 8.74Q8.76 8.50 9.04 8.30L9.04 8.30Q9.48 8.02 10.12 7.85Q10.77 7.69 11.56 7.69ZM11.59 13.03L11.59 13.03Q13.03 13.03 13.03 11.31L13.03 11.31Q13.03 10.42 12.68 9.98Q12.32 9.55 11.65 9.55L11.65 9.55Q11.38 9.55 11.17 9.61Q10.96 9.67 10.81 9.76L10.81 9.76L10.81 12.84Q10.98 12.92 11.17 12.98Q11.37 13.03 11.59 13.03ZM19.54 13.19L19.54 13.19Q19.78 13.19 20.07 13.14Q20.36 13.09 20.50 13.01L20.50 13.01L20.50 11.89L19.49 11.97Q19.10 12.00 18.84 12.14Q18.59 12.28 18.59 12.56L18.59 12.56Q18.59 12.84 18.81 13.01Q19.03 13.19 19.54 13.19ZM19.43 7.69L19.43 7.69Q20.19 7.69 20.81 7.84Q21.43 7.99 21.88 8.31Q22.32 8.62 22.55 9.11Q22.79 9.59 22.79 10.25L22.79 10.25L22.79 13.38Q22.79 13.75 22.59 13.98Q22.39 14.21 22.11 14.38L22.11 14.38Q21.20 14.92 19.54 14.92L19.54 14.92Q18.80 14.92 18.21 14.78Q17.61 14.64 17.18 14.36Q16.76 14.08 16.53 13.65Q16.30 13.22 16.30 12.64L16.30 12.64Q16.30 11.68 16.87 11.16Q17.44 10.64 18.65 10.51L18.65 10.51L20.48 10.32L20.48 10.22Q20.48 9.81 20.13 9.64Q19.77 9.46 19.10 9.46L19.10 9.46Q18.56 9.46 18.06 9.58Q17.56 9.69 17.15 9.86L17.15 9.86Q16.97 9.73 16.84 9.47Q16.72 9.21 16.72 8.93L16.72 8.93Q16.72 8.57 16.89 8.35Q17.07 8.13 17.43 7.98L17.43 7.98Q17.84 7.83 18.39 7.76Q18.94 7.69 19.43 7.69ZM28.08 9.56L28.08 9.56Q27.73 9.56 27.42 9.67Q27.10 9.79 26.87 10.00Q26.64 10.22 26.50 10.54Q26.36 10.86 26.36 11.30L26.36 11.30Q26.36 12.17 26.86 12.60Q27.36 13.03 28.07 13.03L28.07 13.03Q28.49 13.03 28.80 12.94Q29.11 12.84 29.34 12.73L29.34 12.73Q29.62 12.92 29.76 13.15Q29.90 13.38 29.90 13.71L29.90 13.71Q29.90 14.28 29.36 14.60Q28.81 14.91 27.85 14.91L27.85 14.91Q26.96 14.91 26.25 14.65Q25.54 14.39 25.02 13.92Q24.51 13.45 24.23 12.80Q23.95 12.14 23.95 11.34L23.95 11.34Q23.95 10.42 24.25 9.72Q24.56 9.03 25.07 8.58Q25.59 8.13 26.27 7.91Q26.95 7.69 27.71 7.69L27.71 7.69Q28.71 7.69 29.26 8.05Q29.81 8.41 29.81 8.99L29.81 8.99Q29.81 9.25 29.68 9.49Q29.55 9.72 29.39 9.88L29.39 9.88Q29.15 9.77 28.81 9.67Q28.48 9.56 28.08 9.56ZM32.16 12.96L32.16 12.96Q32.00 12.61 31.83 12.18Q31.65 11.75 31.46 11.19Q31.28 10.63 31.07 9.91Q30.87 9.18 30.65 8.25L30.65 8.25Q30.84 8.05 31.17 7.90Q31.50 7.76 31.89 7.76L31.89 7.76Q32.38 7.76 32.70 7.96Q33.03 8.16 33.18 8.72L33.18 8.72L34.29 12.57L34.34 12.57Q34.51 12.10 34.67 11.54Q34.83 10.98 34.99 10.38Q35.14 9.79 35.27 9.19Q35.41 8.60 35.50 8.02L35.50 8.02Q36.01 7.76 36.61 7.76L36.61 7.76Q37.10 7.76 37.42 7.97Q37.74 8.18 37.74 8.69L37.74 8.69Q37.74 9.07 37.65 9.57Q37.55 10.07 37.39 10.63Q37.23 11.19 37.01 11.78Q36.79 12.38 36.55 12.95Q36.32 13.52 36.06 14.04Q35.81 14.55 35.57 14.95L35.57 14.95Q35.18 15.64 34.85 16.07Q34.51 16.51 34.20 16.75Q33.89 17.00 33.59 17.09Q33.28 17.18 32.94 17.18L32.94 17.18Q32.35 17.18 31.99 16.83Q31.63 16.48 31.56 15.92L31.56 15.92Q32.00 15.57 32.45 15.14Q32.90 14.71 33.26 14.27L33.26 14.27Q33.03 14.20 32.75 13.94Q32.48 13.68 32.16 12.96ZM40.29 6.22L44.95 6.22Q45.05 6.37 45.13 6.63Q45.21 6.89 45.21 7.17L45.21 7.17Q45.21 7.71 44.98 7.95Q44.74 8.18 44.35 8.18L44.35 8.18L41.41 8.18L41.41 9.76L44.48 9.76Q44.59 9.91 44.67 10.16Q44.74 10.42 44.74 10.70L44.74 10.70Q44.74 11.23 44.51 11.46Q44.28 11.69 43.89 11.69L43.89 11.69L41.44 11.69L41.44 14.64Q41.29 14.69 40.96 14.73Q40.63 14.77 40.31 14.77L40.31 14.77Q39.98 14.77 39.74 14.72Q39.49 14.67 39.33 14.55Q39.16 14.42 39.07 14.20Q38.99 13.97 38.99 13.61L38.99 13.61L38.99 7.52Q38.99 6.92 39.34 6.57Q39.69 6.22 40.29 6.22L40.29 6.22ZM46.19 6.01L46.19 6.01Q46.19 5.47 46.54 5.11Q46.90 4.75 47.49 4.75L47.49 4.75Q48.08 4.75 48.43 5.11Q48.79 5.47 48.79 6.01L48.79 6.01Q48.79 6.54 48.43 6.90Q48.08 7.27 47.49 7.27L47.49 7.27Q46.90 7.27 46.54 6.90Q46.19 6.54 46.19 6.01ZM48.68 8.99L48.68 14.69Q48.52 14.71 48.22 14.76Q47.92 14.81 47.61 14.81L47.61 14.81Q47.31 14.81 47.06 14.77Q46.82 14.73 46.65 14.60Q46.48 14.48 46.39 14.26Q46.30 14.04 46.30 13.69L46.30 13.69L46.30 7.99Q46.45 7.97 46.75 7.92Q47.05 7.87 47.36 7.87L47.36 7.87Q47.67 7.87 47.91 7.91Q48.16 7.95 48.33 8.08Q48.50 8.20 48.59 8.42Q48.68 8.64 48.68 8.99L48.68 8.99ZM52.57 9.91L52.57 14.69Q52.43 14.73 52.13 14.77Q51.83 14.81 51.51 14.81L51.51 14.81Q51.20 14.81 50.95 14.77Q50.71 14.73 50.54 14.60Q50.37 14.48 50.28 14.26Q50.19 14.04 50.19 13.69L50.19 13.69L50.19 9.49Q50.19 9.17 50.31 8.94Q50.43 8.71 50.65 8.53L50.65 8.53Q50.88 8.34 51.20 8.20Q51.53 8.05 51.91 7.94Q52.29 7.83 52.70 7.76Q53.10 7.70 53.51 7.70L53.51 7.70Q54.18 7.70 54.57 7.96Q54.96 8.22 54.96 8.81L54.96 8.81Q54.96 9.00 54.91 9.19Q54.85 9.38 54.77 9.53L54.77 9.53Q54.47 9.53 54.17 9.56Q53.86 9.59 53.56 9.65Q53.27 9.70 53.01 9.77Q52.75 9.83 52.57 9.91L52.57 9.91ZM59.54 14.92L59.54 14.92Q58.72 14.92 58.01 14.69Q57.30 14.46 56.78 14.00Q56.25 13.54 55.95 12.84Q55.65 12.14 55.65 11.20L55.65 11.20Q55.65 10.28 55.95 9.61Q56.25 8.95 56.74 8.52Q57.23 8.09 57.86 7.89Q58.49 7.69 59.15 7.69L59.15 7.69Q59.89 7.69 60.50 7.91Q61.11 8.13 61.55 8.53Q61.99 8.92 62.24 9.46Q62.48 10.01 62.48 10.65L62.48 10.65Q62.48 11.13 62.22 11.38Q61.95 11.63 61.47 11.70L61.47 11.70L58.02 12.22Q58.17 12.68 58.65 12.92Q59.12 13.15 59.74 13.15L59.74 13.15Q60.31 13.15 60.82 13.00Q61.33 12.85 61.66 12.66L61.66 12.66Q61.88 12.80 62.03 13.05Q62.19 13.30 62.19 13.58L62.19 13.58Q62.19 14.21 61.60 14.52L61.60 14.52Q61.15 14.76 60.59 14.84Q60.03 14.92 59.54 14.92ZM59.15 9.42L59.15 9.42Q58.81 9.42 58.57 9.53Q58.32 9.65 58.17 9.82Q58.02 10.00 57.94 10.21Q57.86 10.43 57.85 10.65L57.85 10.65L60.24 10.26Q60.20 9.98 59.93 9.70Q59.67 9.42 59.15 9.42Z"></path></g><!----><!----><g data-v-423bf9ae="" id="e758a8ef-5370-4298-acc6-f58132aba168" fill="#25BDD6" transform="matrix(5.244755437131728,0,0,5.244755437131728,158.7456350356334,107.8776269014193)"><path d="M4.44 7.29L1.97 16.18Q1.78 16.21 1.60 16.22Q1.41 16.23 1.26 16.23L1.26 16.23Q0.67 16.23 0.36 15.97Q0.04 15.72 0.04 15.16L0.04 15.16Q0.04 14.78 0.15 14.40Q0.27 14.01 0.35 13.72L0.35 13.72L2.81 4.83Q3.02 4.80 3.21 4.80Q3.39 4.79 3.54 4.79L3.54 4.79Q4.10 4.79 4.43 5.03Q4.76 5.26 4.76 5.80L4.76 5.80Q4.76 6.20 4.65 6.57Q4.54 6.93 4.44 7.29L4.44 7.29ZM8.46 8.22L9.10 9.14Q9.00 9.45 8.78 9.65Q8.55 9.84 8.23 9.84L8.23 9.84Q7.90 9.84 7.73 9.65Q7.56 9.46 7.41 9.20L7.41 9.20L7.29 9.00L6.76 9.80Q6.59 9.84 6.44 9.84L6.44 9.84Q5.98 9.84 5.74 9.66Q5.50 9.48 5.50 9.16L5.50 9.16Q5.50 8.99 5.58 8.83Q5.66 8.68 5.81 8.48L5.81 8.48L6.02 8.22L5.17 7.98Q5.08 7.73 5.08 7.46L5.08 7.46Q5.08 7.11 5.29 6.92Q5.49 6.72 5.85 6.72L5.85 6.72Q5.95 6.72 6.07 6.75Q6.19 6.78 6.31 6.82L6.31 6.82L6.52 6.89L6.52 5.88Q6.64 5.81 6.83 5.71Q7.03 5.61 7.28 5.61L7.28 5.61Q7.60 5.61 7.80 5.78Q7.99 5.95 7.99 6.29L7.99 6.29Q7.99 6.40 7.99 6.57Q7.98 6.73 7.97 6.92L7.97 6.92L8.79 6.57Q9.03 6.68 9.20 6.89Q9.37 7.10 9.37 7.39L9.37 7.39Q9.37 7.73 9.19 7.85Q9.02 7.98 8.71 8.11L8.71 8.11L8.46 8.22ZM15.62 10.25L15.62 12.36Q15.62 12.73 15.86 12.88Q16.09 13.03 16.51 13.03L16.51 13.03Q16.72 13.03 16.94 13.00Q17.16 12.96 17.33 12.91L17.33 12.91Q17.46 13.06 17.55 13.25Q17.64 13.44 17.64 13.71L17.64 13.71Q17.64 14.24 17.24 14.57Q16.84 14.91 15.83 14.91L15.83 14.91Q14.60 14.91 13.94 14.35Q13.27 13.79 13.27 12.53L13.27 12.53L13.27 6.54Q13.43 6.50 13.71 6.45Q14.00 6.40 14.32 6.40L14.32 6.40Q14.94 6.40 15.28 6.62Q15.62 6.83 15.62 7.53L15.62 7.53L15.62 8.43L17.46 8.43Q17.54 8.58 17.62 8.81Q17.70 9.04 17.70 9.32L17.70 9.32Q17.70 9.81 17.48 10.03Q17.26 10.25 16.90 10.25L16.90 10.25L15.62 10.25ZM22.44 14.92L22.44 14.92Q21.62 14.92 20.91 14.69Q20.20 14.46 19.68 14.00Q19.15 13.54 18.85 12.84Q18.55 12.14 18.55 11.20L18.55 11.20Q18.55 10.28 18.85 9.61Q19.15 8.95 19.64 8.52Q20.13 8.09 20.76 7.89Q21.39 7.69 22.05 7.69L22.05 7.69Q22.79 7.69 23.40 7.91Q24.01 8.13 24.45 8.53Q24.89 8.92 25.14 9.46Q25.38 10.01 25.38 10.65L25.38 10.65Q25.38 11.13 25.12 11.38Q24.85 11.63 24.37 11.70L24.37 11.70L20.92 12.22Q21.07 12.68 21.55 12.92Q22.02 13.15 22.64 13.15L22.64 13.15Q23.21 13.15 23.72 13.00Q24.23 12.85 24.56 12.66L24.56 12.66Q24.78 12.80 24.93 13.05Q25.09 13.30 25.09 13.58L25.09 13.58Q25.09 14.21 24.50 14.52L24.50 14.52Q24.05 14.76 23.49 14.84Q22.93 14.92 22.44 14.92ZM22.05 9.42L22.05 9.42Q21.71 9.42 21.47 9.53Q21.22 9.65 21.07 9.82Q20.92 10.00 20.84 10.21Q20.76 10.43 20.75 10.65L20.75 10.65L23.14 10.26Q23.10 9.98 22.83 9.70Q22.57 9.42 22.05 9.42ZM30.37 9.56L30.37 9.56Q30.02 9.56 29.70 9.67Q29.39 9.79 29.16 10.00Q28.92 10.22 28.78 10.54Q28.64 10.86 28.64 11.30L28.64 11.30Q28.64 12.17 29.14 12.60Q29.64 13.03 30.35 13.03L30.35 13.03Q30.77 13.03 31.08 12.94Q31.39 12.84 31.63 12.73L31.63 12.73Q31.91 12.92 32.05 13.15Q32.19 13.38 32.19 13.71L32.19 13.71Q32.19 14.28 31.64 14.60Q31.09 14.91 30.13 14.91L30.13 14.91Q29.25 14.91 28.53 14.65Q27.82 14.39 27.31 13.92Q26.80 13.45 26.52 12.80Q26.24 12.14 26.24 11.34L26.24 11.34Q26.24 10.42 26.54 9.72Q26.84 9.03 27.36 8.58Q27.87 8.13 28.55 7.91Q29.23 7.69 29.99 7.69L29.99 7.69Q31.00 7.69 31.54 8.05Q32.09 8.41 32.09 8.99L32.09 8.99Q32.09 9.25 31.96 9.49Q31.84 9.72 31.67 9.88L31.67 9.88Q31.43 9.77 31.09 9.67Q30.76 9.56 30.37 9.56ZM40.10 10.44L40.10 14.69Q39.96 14.73 39.66 14.77Q39.35 14.81 39.03 14.81L39.03 14.81Q38.72 14.81 38.48 14.77Q38.23 14.73 38.07 14.60Q37.90 14.48 37.81 14.26Q37.72 14.04 37.72 13.69L37.72 13.69L37.72 10.58Q37.72 10.01 37.43 9.78Q37.14 9.55 36.72 9.55L36.72 9.55Q36.44 9.55 36.19 9.62Q35.94 9.69 35.78 9.79L35.78 9.79L35.78 14.69Q35.64 14.73 35.34 14.77Q35.04 14.81 34.72 14.81L34.72 14.81Q34.41 14.81 34.17 14.77Q33.92 14.73 33.75 14.60Q33.59 14.48 33.50 14.26Q33.40 14.04 33.40 13.69L33.40 13.69L33.40 5.57Q33.56 5.54 33.86 5.50Q34.16 5.45 34.47 5.45L34.47 5.45Q34.78 5.45 35.02 5.49Q35.27 5.53 35.43 5.66Q35.60 5.78 35.69 6.00Q35.78 6.22 35.78 6.57L35.78 6.57L35.78 7.94Q35.97 7.87 36.34 7.78Q36.71 7.69 37.16 7.69L37.16 7.69Q38.54 7.69 39.32 8.38Q40.10 9.07 40.10 10.44L40.10 10.44ZM47.29 8.22L47.94 9.14Q47.84 9.45 47.61 9.65Q47.39 9.84 47.07 9.84L47.07 9.84Q46.73 9.84 46.56 9.65Q46.40 9.46 46.24 9.20L46.24 9.20L46.13 9.00L45.60 9.80Q45.43 9.84 45.28 9.84L45.28 9.84Q44.81 9.84 44.58 9.66Q44.34 9.48 44.34 9.16L44.34 9.16Q44.34 8.99 44.41 8.83Q44.49 8.68 44.65 8.48L44.65 8.48L44.86 8.22L44.00 7.98Q43.92 7.73 43.92 7.46L43.92 7.46Q43.92 7.11 44.12 6.92Q44.32 6.72 44.69 6.72L44.69 6.72Q44.79 6.72 44.91 6.75Q45.02 6.78 45.15 6.82L45.15 6.82L45.36 6.89L45.36 5.88Q45.47 5.81 45.67 5.71Q45.86 5.61 46.12 5.61L46.12 5.61Q46.44 5.61 46.63 5.78Q46.83 5.95 46.83 6.29L46.83 6.29Q46.83 6.40 46.82 6.57Q46.82 6.73 46.80 6.92L46.80 6.92L47.63 6.57Q47.87 6.68 48.03 6.89Q48.20 7.10 48.20 7.39L48.20 7.39Q48.20 7.73 48.03 7.85Q47.85 7.98 47.54 8.11L47.54 8.11L47.29 8.22ZM52.99 7.29L50.53 16.18Q50.33 16.21 50.15 16.22Q49.97 16.23 49.81 16.23L49.81 16.23Q49.22 16.23 48.91 15.97Q48.59 15.72 48.59 15.16L48.59 15.16Q48.59 14.78 48.71 14.40Q48.82 14.01 48.90 13.72L48.90 13.72L51.37 4.83Q51.58 4.80 51.76 4.80Q51.94 4.79 52.09 4.79L52.09 4.79Q52.65 4.79 52.98 5.03Q53.31 5.26 53.31 5.80L53.31 5.80Q53.31 6.20 53.20 6.57Q53.09 6.93 52.99 7.29L52.99 7.29Z"></path></g></svg>